<svg width="137" height="187" viewBox="0 0 137 187" fill="none" xmlns="http://www.w3.org/2000/svg">
<g clip-path="url(#clip0_1_46)">
<path d="M137 0H0V187H137V0Z" fill="#3A7E85"/>
<path d="M88.0965 50.9604H52.9066V142.515H88.0965V50.9604Z" fill="#214F54"/>
<path d="M88.0966 50.9604H82.6328V142.515H88.0966V50.9604Z" fill="#1F3335"/>
<path d="M52.9607 111.852L76.4387 79.3655H104.461L83.0114 111.852H52.9607Z" fill="#305558"/>
<path d="M52.9607 79.3655L74.7346 44.4577L76.4387 79.3655L52.9607 111.852V79.3655Z" fill="#2A7077"/>
<path d="M104.461 44.4577V79.3655H76.4387L74.7346 44.4577H104.461Z" fill="#214F54"/>
<path d="M137 0H129.724V187H137V0Z" fill="#3B9DA8"/>
<path d="M7.27601 0H0V187H7.27601V0Z" fill="#3B9DA8"/>
<path d="M137 7.31893V0L0 0V7.31893L137 7.31893Z" fill="#3B9DA8"/>
<path d="M137 187.319V180H1.52588e-05V187.319H137Z" fill="#3B9DA8"/>
</g>
<defs>
<clipPath id="clip0_1_46">
<rect width="137" height="187" fill="white"/>
</clipPath>
</defs>
</svg>
