<svg width="137" height="187" viewBox="0 0 137 187" fill="none" xmlns="http://www.w3.org/2000/svg">
<g clip-path="url(#clip0_1_46)">
<path d="M137 187H0V0H137V187Z" fill="#3A7E85"/>
<path d="M88.0965 136.04H52.9066V44.4849H88.0965V136.04Z" fill="#214F54"/>
<path d="M88.0966 136.04H82.6328V44.4849H88.0966V136.04Z" fill="#1F3335"/>
<path d="M52.9607 75.1483L76.4387 107.635H104.461L83.0114 75.1483H52.9607Z" fill="#305558"/>
<path d="M52.9607 107.635L74.7346 142.542L76.4387 107.635L52.9607 75.1483V107.635Z" fill="#2A7077"/>
<path d="M104.461 142.542V107.635H76.4387L74.7346 142.542H104.461Z" fill="#214F54"/>
<path d="M137 187H129.724V0H137V187Z" fill="#3B9DA8"/>
<path d="M7.27601 187H0V0H7.27601V187Z" fill="#3B9DA8"/>
<path d="M137 179.681V187H0V179.681H137Z" fill="#3B9DA8"/>
<path d="M137 -0.31893V7L1.52588e-05 7V-0.31893L137 -0.31893Z" fill="#3B9DA8"/>
</g>
<defs>
<clipPath id="clip0_1_46">
<rect width="137" height="187" fill="white" transform="matrix(1 0 0 -1 0 187)"/>
</clipPath>
</defs>
</svg>
