<?xml version="1.0" encoding="UTF-8"?>
<svg id="Laag_1" data-name="Laag 1" xmlns="http://www.w3.org/2000/svg" viewBox="0 0 547.65 253.66">
  <defs>
    <style>
      .cls-1 {
        letter-spacing: .03em;
      }

      .cls-2, .cls-3 {
        fill: #fff;
      }

      .cls-4 {
        letter-spacing: .04em;
      }

      .cls-5 {
        letter-spacing: .04em;
      }

      .cls-6 {
        letter-spacing: 0em;
      }

      .cls-3 {
        font-family: MarkerFelt-Wide, 'Marker Felt';
        font-size: 52px;
      }

      .cls-7 {
        letter-spacing: .04em;
      }

      .cls-8 {
        letter-spacing: .04em;
      }
    </style>
  </defs>
  <text class="cls-3" transform="translate(336.54 57.74)"><tspan class="cls-8" x="0" y="0">D</tspan><tspan class="cls-5" x="30.06" y="0">i</tspan><tspan x="44.41" y="0">t </tspan><tspan class="cls-1" x="78.21" y="0">b</tspan><tspan class="cls-4" x="105.82" y="0">e</tspan><tspan class="cls-6" x="131.09" y="0">n </tspan><tspan class="cls-7" x="170.09" y="0">i</tspan><tspan x="184.6" y="0">k</tspan></text>
  <path class="cls-2" d="m316.75,65.27c-4.84-8.53-4.48-18.12-4.76-27.43-.22-7.36,1.03-14.76.85-22.13-.59-2.44-2.32-4.45-4.65-5.39-4.91-.93-9.19-3.93-11.74-8.23-1.2-1.45-3.04-2.22-4.92-2.07-17.05,3.04-34.49,4.92-50.94,10-17.33,5.58-34.15,12.68-50.24,21.2-18.81,9.5-36.93,20.28-54.26,32.27-12.91,9.84-24.93,20.8-35.94,32.73-8.9,8.98-16.7,19.07-24.82,28.8-2.58,3.1-4.35,1.29-6.05-.54-3.76-4.08-7.43-8.24-10.96-12.52-1.48-1.99-2.82-4.09-4.02-6.26-2.47-4.01-5.19-7.26-10.72-5.12h0c-1.36-.06-2.72-.18-4.06-.38-1.66.19-3.19.97-4.32,2.2-10.3,19.55-18.1,40.33-23.21,61.83-5.9,22.65-9.38,45.86-10.38,69.25-.19,4.24-.88,8.46-1.44,12.67-.77,5.71.72,8.1,6.4,7.4,12.59-1.54,25.1-3.76,37.62-5.84,11.85-1.97,23.68-4,35.48-6.26,5.36-1.03,10.6-2.72,15.91-4.04,13.55-3.36,27.28-6.12,40.6-10.23,9.51-3.28,18.79-7.2,27.77-11.72,5.69-2.64,6.49-6.86,4.11-12.81h0c-2.23-5.26-6.51-9.39-11.83-11.44-9.58-5.37-18.77-11.42-27.48-18.1-2.85-1.97-5.39-4.41-8.07-6.63h0c1.97-2.7,4.15-5.24,6.51-7.6,6.41-5.55,13.09-10.78,19.67-16.14l.27.35c5.72-4.43,11.72-8.5,17.95-12.17,10.73-5.54,21.85-10.35,32.97-15.07,15.45-6.55,30.89-13.15,46.63-18.93,16.24-5.97,32.77-11.19,49.31-16.32h0c5.5-1.34,11.09-2.31,16.72-2.92,7.49-1.27,9.68-5.98,6.04-12.4ZM88.67,233.35l-9.28-3.26c4.89-3.98,6.58,1.74,9.78,1.63h0s-.49,1.63-.49,1.63Zm16.96-10.83h0c5.19-2.92,8.98.33,13.63,2.09-6.23,6.27-9.34-1.04-13.63-2.09Zm32.47-2.41l-4.86-7.05,10.33,4.33-5.47,2.72Zm4.3-81.54l-5.27-3.9c1.38-1.92,3.54-3.12,5.9-3.29,2.35-.17,4.66.71,6.31,2.41l-6.94,4.78Zm4.67-12.68h0c2.24-1.17,4.76-1.68,7.28-1.47,2.52.21,4.92,1.12,6.95,2.64-5.17,5.32-9.29-2.32-14.23-1.17Zm30.31-8.44c-2.89-.94-5.7-2.12-8.41-3.51-1.8-.6-3.63-1.1-5.48-1.51,4.06-5.16,10.82-4.08,20.33,3.98h0c-2.07.73-4.25,1.08-6.44,1.03Zm19.77-7.35h0c-1.35.84-2.93,1.22-4.51,1.07-5.74-1.83-11.34-4.08-16.99-6.18l.2-1.97c2.44-.28,4.9-.24,7.33.1,4.23,1.15,8.2,3.23,12.42,4.37h0c1.82,0,3.62-.38,5.27-1.13-.93-1.58-2.16-2.97-3.62-4.09-3.63-1.53-7.34-2.87-11.12-4.01,6.35-4.38,20.7-.97,24.52,5.04-4.72,2.39-9.07,4.69-13.5,6.79Zm20.68-9.12l.43-1.39c-6-2.87-11.99-5.74-18.25-8.73l6.37-2.7c7.18,3.28,12.79,5.84,19.85,9.06l-8.4,3.77Zm9.82-11.67l-11.59-2.38.06-1.24,5.19-1.87-.34,1.43c2.22,1.35,4.45,2.71,6.67,4.06Zm4.75,6.56l-4.38-6.35,9.25,3.86-4.88,2.49Zm-6.56-13.64c2.27-1,4.29-2.03,6.41-2.77,1.19-.28,2.42-.43,3.65-.45l-.4,1.2c2.55,1.26,5.1,2.52,7.65,3.79,2.66,1.31,5.32,2.62,8.74,4.31-5.08,1.95-13.19-.15-26.05-6.07Zm37.58,2.51c-6.73-2.34-13.46-4.68-20.43-7.1h0c9.08-4.57,14.63,1.72,20.96,5.42l-.53,1.68Zm-1.71-11.83c6.58-1.53,10.07,4.43,15.19,6.49-6.55,1.28-10.33-3.8-15.19-6.49Zm24.79,3.48l-11.89-6.13.46-1.21,4.76-.9,7.45,6.96-.79,1.28Zm-2.68-13.45c-20.6,5.07-41.33,9.67-61.77,15.32h0c-19.58,5.19-38.08,13.82-54.64,25.49-7.46,5.36-14.16,11.78-21.55,17.24h0c-16.26,12.77-30.97,27.37-43.86,43.53-1.25,1.08-2.01,2.63-2.08,4.29-.08,1.65.53,3.27,1.68,4.46,2.41,3.46,5.63,6.27,9.38,8.18,8.35,4.64,16.55,9.53,24.74,14.43,2.19,1.32,4.13,3.05,6.94,5.15-3.69,1.64-6.04,2.9-8.52,3.75-19.53,6.69-39.04,13.44-58.65,19.91-20.94,6.91-41.99,13.49-62.96,20.29-5.03,1.63-6.11.97-5.58-4.35,1.51-15.18,3.08-30.35,4.73-45.51h0c.27-4.78.86-9.54,1.77-14.24,2.86-11.64,6.15-23.19,9.36-34.75h0c3.18-12.35,8.1-24.19,14.61-35.15,1.34,1.42,2.39,2.49,3.38,3.6,7.41,8.31,14.47,16.97,22.34,24.81,4.68,4.66,8.76,3.01,11.61-2.95h0c1.81-4.22,4.14-8.19,6.95-11.81,8.78-10.32,17.47-20.81,27.19-30.22,11.38-11.02,23.55-21.27,35.88-31.25,6.15-4.98,13.47-8.48,20.13-12.86h0c16.63-11.16,34.56-20.24,53.4-27.04,16.62-5.86,33.59-10.85,50.62-15.42,6.22-.91,12.53-1.14,18.8-.67-10.31,19.02-4.47,36.46,2.77,54.07-2.62.67-4.63,1.2-6.65,1.7Zm20.79-12.54c-.56-3.19-1.12-6.39-1.68-9.58l1.83-.36c.6,3.09,1.21,6.18,1.81,9.27l-1.96.67Z"/>
</svg>