<svg width="328" height="1199" viewBox="0 0 328 1199" fill="none" xmlns="http://www.w3.org/2000/svg">
<g clip-path="url(#clip0_4_102)">
<path d="M128.49 820.69L2.52002 1126H324.97L194.21 821.29L128.49 820.69Z" fill="#F4C95B"/>
<path d="M165.7 0H156.83V732.23H165.7V0Z" fill="black"/>
<path d="M161.26 864.7C180.148 864.7 195.46 849.388 195.46 830.5C195.46 811.612 180.148 796.3 161.26 796.3C142.372 796.3 127.06 811.612 127.06 830.5C127.06 849.388 142.372 864.7 161.26 864.7Z" fill="#F3E848"/>
<path d="M184.5 732.23V805.45H138.02V732.23C138.02 732.23 143.13 724.54 152.37 721.13V695.96H170.15V721.13C179.4 724.54 184.5 732.23 184.5 732.23Z" fill="black"/>
<path d="M184.5 732.23V805.45H174.89C174.89 792.34 175.78 741.46 174.96 735.92C174.02 729.58 165.7 724.65 165.7 724.65V695.96H170.15V721.13C179.4 724.54 184.5 732.23 184.5 732.23Z" fill="#333333"/>
<path d="M165.69 0H163.69V713.43H165.69V0Z" fill="#454545"/>
<path d="M186.64 814.21C186.64 814.21 204.97 845.2 170.77 858.59C161.26 862.31 196.39 845.72 186.64 814.21Z" fill="white"/>
<path d="M163.78 1198.32C254.233 1198.32 327.56 1170.79 327.56 1136.84C327.56 1102.89 254.233 1075.36 163.78 1075.36C73.3268 1075.36 0 1102.89 0 1136.84C0 1170.79 73.3268 1198.32 163.78 1198.32Z" fill="#F7D691"/>
</g>
<defs>
<clipPath id="clip0_4_102">
<rect width="327.56" height="1198.32" fill="white"/>
</clipPath>
</defs>
</svg>
