<?xml version="1.0" encoding="UTF-8"?>
<svg id="Laag_1" data-name="Laag 1" xmlns="http://www.w3.org/2000/svg" xmlns:xlink="http://www.w3.org/1999/xlink" viewBox="0 0 327.56 1198.32">
  <defs>
    <style>
      .cls-1 {
        fill: none;
      }

      .cls-2 {
        clip-path: url(#clippath);
      }

      .cls-3, .cls-4 {
        fill: #fff;
      }

      .cls-5 {
        fill: #333;
      }

      .cls-6 {
        fill: #454545;
      }

      .cls-4 {
        isolation: isolate;
        opacity: .29;
      }
    </style>
    <clipPath id="clippath">
      <rect class="cls-1" width="327.56" height="1198.32"/>
    </clipPath>
  </defs>
  <g class="cls-2">
    <g>
      <path d="m165.7,0h-8.87v732.23h8.87V0Z"/>
      <path class="cls-4" d="m161.26,864.7c18.89,0,34.2-15.31,34.2-34.2s-15.31-34.2-34.2-34.2-34.2,15.31-34.2,34.2,15.31,34.2,34.2,34.2Z"/>
      <path d="m184.5,732.23v73.22h-46.48v-73.22s5.11-7.69,14.35-11.1v-25.17h17.78v25.17c9.25,3.41,14.35,11.1,14.35,11.1h0Z"/>
      <path class="cls-5" d="m184.5,732.23v73.22h-9.61c0-13.11.89-63.99.07-69.53-.94-6.34-9.26-11.27-9.26-11.27v-28.69h4.45v25.17c9.25,3.41,14.35,11.1,14.35,11.1h0Z"/>
      <path class="cls-6" d="m165.69,0h-2v713.43h2V0Z"/>
      <path class="cls-3" d="m186.64,814.21s18.33,30.99-15.87,44.38c-9.51,3.72,25.62-12.87,15.87-44.38Z"/>
    </g>
  </g>
</svg>